# xmcd
#
# Track frame offsets: 
#        150
#        10475
#        20122
#        31117
#        42530
#        55292
#        65315
#        75142
#        87637
#        99812
#        112017
#        123540
#        134100
#        145072
#        156632
#        168655
#        178615
#        190175
#        202505
#        210977
#        223362
#        234975
#        246140
#        257075
#        267775
#        275752
#        286032
#        296870
#        309020
#        326895
#        338330
#
# Disc length: 4609 seconds
#
# Revision: 3
# Processed by: cddbd v1.5.2PL0 Copyright (c) Steve Scherf et al.
# Submitted via: ExactAudioCopyFreeDBPlugin 1.0
#
DISCID=cb11ff1f
DTITLE=Various Artist - Blowing the Fuse:  459 R&B Classics, 1945-196
DTITLE=0 [Bear Family]
DYEAR=1958
DGENRE=Rhythm and Blues
TTITLE0=The Hollywood Flames - Buzz, Buzz, Buzz
TTITLE1=Gene Allison - You Can Make it If You Try
TTITLE2=Lee Allen and His Band - Walkin' with Mr. Lee
TTITLE3=Roy Hamilton - Don't Let Go
TTITLE4=The Chantels - Maybe
TTITLE5=Sam Cooke - I'll Come Running Back to You
TTITLE6=Little Richard - Good Golly, Miss Molly
TTITLE7=The Silhouettes - Get a Job
TTITLE8=Little Willie John - Talk to Me, Talk to Me
TTITLE9=Jimmy McCracklin - The Walk
TTITLE10=Huey "Piano" Smith - Don't You Just Know It
TTITLE11=The Monotones - Book of Love
TTITLE12=Chuck Willis - What Am I Living For
TTITLE13=Bobby Freeman - Do You Wanna Dance?
TTITLE14=Chuck Berry - Johnny B. Goode
TTITLE15=The Danleers - One Summer Night
TTITLE16=The Johnny Otis Show - Willie and the Hand Jive
TTITLE17=Larry Williams - Slow Down
TTITLE18=The Coaster - Yakety Yak
TTITLE19=Jerry Butler and The Impressions - For Your Precious Love
TTITLE20=Bobby Day - Rockin' Robin
TTITLE21=Bobby Hendricks - Itchy Twitchy Feeling
TTITLE22=The Shields - You Cheated
TTITLE23=The Olympics - Western Movies
TTITLE24=Ruth Brown - This Little Girl's Gone Rockin'
TTITLE25=Little Anthony and The Imperials - Tears on My Pillow
TTITLE26=Dee Clark - Nobody But You
TTITLE27=Jackie Wilson - Lonely Teardrops
TTITLE28=Harvey and The Moonglows - Ten Commandments of Love
TTITLE29=Clyde McPhatter - A Lover's Question
TTITLE30=Fats Domino - Whole Lotta Loving
EXTD=
EXTT0=
EXTT1=
EXTT2=
EXTT3=
EXTT4=
EXTT5=
EXTT6=
EXTT7=
EXTT8=
EXTT9=
EXTT10=
EXTT11=
EXTT12=
EXTT13=
EXTT14=
EXTT15=
EXTT16=
EXTT17=
EXTT18=
EXTT19=
EXTT20=
EXTT21=
EXTT22=
EXTT23=
EXTT24=
EXTT25=
EXTT26=
EXTT27=
EXTT28=
EXTT29=
EXTT30=
PLAYORDER=
